# xmcd CD database file
#
# Track frame offsets:
#	150
#	56750
#	89055
#	172237
#	210507
#
# Disc length: 3703 seconds
#
# Revision: 0
# Processed by: cddbd v1.5PL3 Copyright (c) Steve Scherf et al.
# Submitted via: CDex 1.50
#
DISCID=480e7505
DTITLE=Collective 4tet (Heinz Geisser/Mark Hennen/Jeff Hoyer/William Parker) - Synopsis
DYEAR=2003
DGENRE=Jazz
TTITLE0=Convergence 
TTITLE1=Going Ahead
TTITLE2=Synopsis
TTITLE3=Left Turn
TTITLE4=Jig
EXTD=YEAR: 2003
EXTT0=
EXTT1=
EXTT2=
EXTT3=
EXTT4=
PLAYORDER=
